HIERARCHY
ROOT Hips
{
	OFFSET -3.958830 18.904000 13.208200
	CHANNELS 6 Xposition Yposition Zposition Zrotation Yrotation Xrotation 
	JOINT LHipJoint
	{
		OFFSET 0.000000 0.000000 0.000000
		CHANNELS 3 Zrotation Yrotation Xrotation
		JOINT LeftUpLeg
		{
			OFFSET 1.800000 -1.400000 0.085000
			CHANNELS 3 Zrotation Yrotation Xrotation
			JOINT LeftLeg
			{
				OFFSET 2.215000 -6.000000 0.000000
				CHANNELS 3 Zrotation Yrotation Xrotation
				JOINT LeftFoot
				{
					OFFSET 2.500000 -6.900000 0.000000
					CHANNELS 3 Zrotation Yrotation Xrotation
					JOINT LeftToeBase
					{
						OFFSET 0.200000 -0.500000 1.950000
						CHANNELS 3 Zrotation Yrotation Xrotation
						End Site
						{
							OFFSET 0.000000 0.000000 0.000000
						}
					}
				}
			}
		}
	}
	JOINT RHipJoint
	{
		OFFSET 0.000000 0.000000 0.000000
		CHANNELS 3 Zrotation Yrotation Xrotation
		JOINT RightUpLeg
		{
			OFFSET -1.800000 -1.400000 0.085000
			CHANNELS 3 Zrotation Yrotation Xrotation
			JOINT RightLeg
			{
				OFFSET -2.215000 -6.000000 0.000000
				CHANNELS 3 Zrotation Yrotation Xrotation
				JOINT RightFoot
				{
					OFFSET -2.500000 -6.900000 0.000000
					CHANNELS 3 Zrotation Yrotation Xrotation
					JOINT RightToeBase
					{
						OFFSET -0.200000 -0.500000 1.950000
						CHANNELS 3 Zrotation Yrotation Xrotation
						End Site
						{
							OFFSET 0.000000 0.000000 0.000000
						}
					}
				}
			}
		}
	}
	JOINT LowerBack
	{
		OFFSET 0.000000 0.000000 0.000000
		CHANNELS 3 Zrotation Yrotation Xrotation
		JOINT Spine
		{
			OFFSET -0.087000 1.940000 -0.288900
			CHANNELS 3 Zrotation Yrotation Xrotation
			JOINT Spine1
			{
				OFFSET 0.000000 1.950000 0.060000
				CHANNELS 3 Zrotation Yrotation Xrotation
				JOINT Neck
				{
					OFFSET 0.000000 0.000000 0.000000
					CHANNELS 3 Zrotation Yrotation Xrotation
					JOINT Neck1
					{
						OFFSET 0.000000 1.600000 0.340000
						CHANNELS 3 Zrotation Yrotation Xrotation
						JOINT Head
						{
							OFFSET 0.000000 1.667000 -0.240000
							CHANNELS 3 Zrotation Yrotation Xrotation
							End Site
							{
								OFFSET 0.000000 0.000000 0.000000
							}
						}
					}
				}
				JOINT LeftShoulder
				{
					OFFSET 0.000000 0.000000 0.000000
					CHANNELS 3 Zrotation Yrotation Xrotation
					JOINT LeftArm
					{
						OFFSET 2.700000 1.550000 -0.730000
						CHANNELS 3 Zrotation Yrotation Xrotation
						JOINT LeftForeArm
						{
							OFFSET 5.450000 0.000000 0.000000
							CHANNELS 3 Zrotation Yrotation Xrotation
							JOINT LeftHand
							{
								OFFSET 3.450000 0.000000 0.000000
								CHANNELS 3 Zrotation Yrotation Xrotation
								JOINT LeftHandIndex1
								{
									OFFSET 0.750000 0.000000 0.000000
									CHANNELS 3 Zrotation Yrotation Xrotation
									End Site
									{
										OFFSET 0.000000 0.000000 0.000000
									}
								}
							}
						}
					}
				}
				JOINT RightShoulder
				{
					OFFSET 0.000000 0.000000 0.000000
					CHANNELS 3 Zrotation Yrotation Xrotation
					JOINT RightArm
					{
						OFFSET -2.700000 1.550000 -0.730000
						CHANNELS 3 Zrotation Yrotation Xrotation
						JOINT RightForeArm
						{
							OFFSET -5.450000 0.000000 0.000000
							CHANNELS 3 Zrotation Yrotation Xrotation
							JOINT RightHand
							{
								OFFSET -3.450000 0.000000 0.000000
								CHANNELS 3 Zrotation Yrotation Xrotation
								JOINT RightHandIndex1
								{
									OFFSET -0.750000 0.000000 0.000000
									CHANNELS 3 Zrotation Yrotation Xrotation
									End Site
									{
										OFFSET 0.000000 0.000000 0.000000
									}
								}
							}
						}
					}
				}
			}
		}
	}
}
MOTION
Frames: 12
Frame Time: 0.016667
-0.019680 16.977520 -3.069390 -4.267580 52.970961 -4.926477 -15.798366 11.442508 6.272951 23.325167 -8.270491 -32.333277 -39.960158 28.175842 39.927447 1.752626 12.616899 0.175188 0.186840 0.110670 0.147730 17.902434 -9.122916 2.462796 -14.766303 2.657916 -37.673545 -4.511151 -4.909670 36.610742 -0.327213 -4.321741 2.588033 0.046090 -0.079770 0.093110 -2.337072 -2.774337 -9.609609 1.574367 -0.625825 29.778410 3.166344 0.798384 -5.437986 2.501663 4.812463 -10.385405 4.687668 -9.115018 52.002246 4.413270 -9.243640 -8.088680 -37.403503 -16.029285 3.814169 -46.467218 -2.081289 -6.298397 -22.397072 -15.660702 0.743205 -3.437208 3.004644 0.407960 -0.163880 0.227920 0.015260 33.567784 15.474515 5.916933 37.378718 -0.045594 -8.902514 19.152564 24.533655 2.035940 2.364954 -1.226536 -0.034560 0.139700 0.023640 -0.059460 
-0.000720 16.876610 -3.029910 -5.418915 53.171018 -5.775269 -15.798378 11.460638 6.260212 23.570347 -8.001345 -32.027688 -39.807171 28.469382 40.240995 1.780069 12.672197 0.162329 0.183600 0.112110 0.134960 17.903419 -9.079940 2.515575 -14.299943 3.042910 -37.814810 -4.502686 -5.057937 38.129084 -0.360471 -4.542521 2.520086 0.042040 -0.077690 0.089700 -2.273127 -2.836952 -9.629663 1.788305 -0.631723 29.327761 3.916238 0.893389 -5.894307 2.438499 4.644274 -10.252736 4.430199 -9.211267 52.094012 4.616230 -9.660700 -7.991600 -38.053932 -15.432503 3.733889 -47.999094 -1.197190 -6.696797 -21.765166 -15.390193 0.565195 -3.433573 2.997271 0.402060 -0.166730 0.226460 0.020480 34.451067 15.171141 5.735524 37.054194 -0.002711 -8.704824 16.851629 23.416690 1.652507 2.368698 -1.209425 -0.028910 0.139030 0.022120 -0.050330 
0.033660 16.776940 -2.973200 -6.856932 53.545047 -7.088197 -15.798705 11.522091 6.207203 23.672011 -7.706753 -31.321112 -38.740728 28.855959 41.420818 1.798912 12.763284 0.116396 0.200080 0.137260 0.160550 17.888143 -9.108342 2.544962 -13.555748 3.476733 -37.464456 -4.709210 -5.075394 39.628204 -0.419434 -4.724354 2.455417 0.043320 -0.121100 0.084700 -2.155748 -2.823237 -9.599017 1.596094 -0.274158 28.877463 4.777903 1.310002 -6.478206 2.627402 5.426564 -10.677870 6.535821 -10.523603 53.303321 4.748900 -10.004670 -8.522480 -38.970394 -15.329328 4.126831 -50.261253 0.471451 -7.762169 -22.420042 -16.459645 0.610063 -3.390404 2.986017 0.428780 -0.196790 0.264020 0.011710 35.091589 15.090814 5.679476 37.365810 0.284163 -8.346209 12.814390 21.542445 1.059259 2.392404 -1.151923 -0.016280 0.134220 0.007400 -0.059140 
0.074160 16.717380 -2.949300 -8.148577 53.320299 -8.223290 -15.792745 11.625787 6.074450 22.837631 -7.758644 -30.764618 -36.283973 28.447537 42.987362 1.784280 12.748429 0.106671 0.212980 0.148860 0.187300 17.868351 -9.124975 2.641854 -13.364029 3.744417 -37.502040 -3.734561 -5.560726 40.486618 -0.458251 -4.877859 2.400599 0.037230 -0.151210 0.084520 -2.088690 -2.857139 -9.579781 1.786322 -0.081677 28.122281 5.457138 1.574737 -6.312416 2.799133 5.730456 -11.449798 7.754808 -10.737110 54.451403 4.701150 -9.504980 -8.143240 -39.274491 -16.120813 4.812035 -53.287836 0.977638 -8.961053 -22.700364 -19.501428 0.921355 -3.354938 2.997101 0.444490 -0.213380 0.288860 0.008330 35.038883 16.032671 6.078149 37.498574 0.937994 -7.628412 10.066795 19.251547 0.682881 2.430838 -1.109680 -0.005500 0.120640 -0.009950 -0.068900 
0.116610 16.709390 -2.954310 -8.490815 52.545912 -8.683927 -15.784811 11.727086 5.924789 21.235082 -8.139260 -30.350988 -33.748437 27.858493 44.773527 1.771082 12.740019 0.109336 0.208810 0.151620 0.177650 17.845573 -9.201743 2.692921 -13.395349 3.706001 -37.386770 -2.938170 -5.873635 40.416375 -0.457687 -4.898145 2.398173 0.036430 -0.146230 0.072770 -2.102495 -2.819796 -9.528016 1.929955 0.066062 27.539565 5.736611 1.719641 -5.836740 2.807928 5.911042 -11.861521 8.412749 -11.065816 55.185204 5.460590 -9.853390 -7.848180 -38.948523 -16.763550 5.096733 -55.350609 0.186594 -9.141422 -23.500700 -20.428863 1.098462 -3.353141 2.989848 0.445640 -0.217330 0.289480 0.012050 34.679279 16.669553 6.320892 37.775446 1.678518 -7.040731 8.886580 17.645756 0.523347 2.458223 -1.074310 -0.008170 0.130980 -0.010720 -0.063160 
0.163900 16.777920 -2.989640 -7.903806 51.225872 -8.371949 -15.787406 11.936060 5.770015 19.042384 -8.587572 -29.700638 -31.250240 26.526098 45.584470 1.691944 12.518716 0.163654 0.206090 0.145620 0.180060 17.785050 -9.417653 2.607555 -13.154846 3.246329 -36.098352 -2.656407 -5.500627 37.537318 -0.378304 -4.430910 2.557724 0.035670 -0.142970 0.075790 -2.090298 -2.791796 -9.376570 1.301637 0.273912 26.417344 6.147490 1.635678 -4.944896 2.797716 6.231818 -12.236782 9.291993 -11.092328 56.069460 5.601590 -9.512050 -7.122060 -38.158923 -17.706449 5.330476 -56.607573 -1.523324 -8.315871 -24.763743 -19.486352 1.144587 -3.377015 2.993843 0.445920 -0.210250 0.286420 0.006720 33.980968 17.276434 6.569184 38.508771 2.319742 -6.855127 8.908904 17.761866 0.528705 2.460540 -1.073826 -0.011040 0.126850 -0.005250 -0.068220 
0.202240 16.924890 -3.067000 -6.534831 49.001799 -7.191727 -15.802583 12.150436 5.617500 16.508822 -9.026142 -28.868637 -29.837479 24.654304 44.465293 1.544427 11.998509 0.290992 0.224760 0.162030 0.209860 17.708949 -9.664443 2.469317 -12.902910 2.459021 -34.443443 -2.433674 -4.702712 31.752506 -0.260039 -3.535208 2.858831 0.046680 -0.161250 0.093800 -2.050149 -2.741603 -9.170072 0.046919 0.817812 24.961219 6.577093 1.630589 -3.065015 2.807285 6.873116 -13.095643 10.966763 -11.086782 57.447265 5.447580 -8.190590 -6.581100 -36.379499 -19.929658 5.894096 -57.655600 -5.142667 -6.788394 -26.851322 -20.059799 1.675846 -3.396876 3.032149 0.458610 -0.205640 0.303680 -0.003600 32.208148 18.850467 7.284846 40.224323 3.230590 -6.672590 8.935600 18.475826 0.531408 2.453052 -1.086781 -0.005780 0.108090 -0.008550 -0.086290 
0.218750 17.109220 -3.162310 -5.580432 45.922935 -5.703241 -15.822231 12.198238 5.513638 14.949123 -9.252435 -28.965130 -28.927669 23.127431 43.065181 1.405693 11.533998 0.427107 0.206450 0.150340 0.196210 17.673420 -9.753749 2.410817 -12.450568 1.977478 -32.980208 -1.034560 -4.064370 24.378926 -0.123313 -2.605003 3.205827 0.052820 -0.126020 0.096970 -2.022165 -2.639146 -9.016278 -1.006217 1.342878 23.207216 7.212731 1.687930 -1.007812 2.620013 7.473769 -13.390432 12.258880 -11.053483 57.129679 5.257860 -7.082660 -5.699370 -33.640447 -21.533669 6.154890 -58.933977 -9.460068 -4.791851 -29.107717 -21.066606 2.459426 -3.464848 3.052748 0.440090 -0.167250 0.281830 -0.004810 29.878006 19.727651 7.668413 41.846995 4.225755 -6.737390 10.262068 20.425494 0.684830 2.425623 -1.107347 -0.023020 0.119450 0.006870 -0.088750 
0.243860 17.305040 -3.286820 -4.717970 41.859725 -4.344818 -15.820042 12.170603 5.326208 13.558522 -9.040123 -28.549318 -28.288767 21.901464 41.408485 1.287882 11.068309 0.570448 0.208100 0.164300 0.194900 17.677055 -9.736078 2.491755 -11.965086 1.870429 -31.835744 0.873089 -3.472234 16.943898 -0.039658 -1.932551 3.467721 0.069480 -0.102440 0.096000 -2.062304 -2.463959 -8.904684 -1.542519 1.990263 22.114080 7.217875 2.156853 0.395637 2.546399 7.960540 -13.022510 13.219946 -11.177263 55.688323 5.296340 -6.397400 -5.995810 -31.335856 -21.536247 6.018135 -59.100498 -12.304071 -3.400928 -33.982797 -23.599625 4.114385 -3.516986 3.090926 0.420960 -0.142580 0.267880 -0.000700 27.730325 19.353687 7.497755 43.153131 5.174891 -6.880183 12.936471 22.669016 1.056128 2.407202 -1.135914 -0.030610 0.133730 0.007600 -0.086950 
0.259900 17.506460 -3.468200 -3.797900 37.378216 -2.949175 -15.785595 12.137682 5.085090 11.400521 -8.779849 -28.330373 -26.719285 20.418085 40.096431 1.161037 10.513016 0.759648 0.193270 0.157950 0.162750 17.714521 -9.633958 2.738397 -11.877648 2.064991 -31.760240 3.196078 -3.106479 11.205848 0.005526 -1.672254 3.585121 0.075900 -0.055710 0.090200 -2.194728 -2.349234 -8.915528 -1.205763 2.234695 21.605069 6.709388 2.412885 1.818629 2.349995 7.314323 -12.772129 11.488394 -9.850991 54.806718 5.279090 -5.804300 -5.692630 -28.689660 -21.670364 6.064249 -58.682873 -14.621048 -2.478024 -40.001568 -28.315142 6.881085 -3.561102 3.144525 0.390830 -0.112950 0.235750 0.015750 25.382429 19.771267 7.432885 43.087907 6.917996 -6.629695 16.806948 24.773830 1.766866 2.402412 -1.171716 -0.043470 0.153330 0.016230 -0.071280 
0.272880 17.713890 -3.664710 -3.663391 32.066276 -2.502808 -15.721085 12.209007 4.809743 9.758204 -8.135187 -27.767592 -23.997919 18.773300 39.249687 1.002629 9.891683 0.956030 0.198910 0.172420 0.150770 17.768495 -9.600439 2.992501 -10.555160 2.663075 -32.137777 4.616096 -2.803321 8.291162 0.026092 -1.547073 3.644798 0.089930 -0.031730 0.087440 -2.388612 -2.265663 -8.924802 0.011276 2.196146 21.875723 5.616792 2.674674 3.201323 2.342273 6.323502 -12.634088 9.171794 -8.406696 55.132439 5.004940 -5.255820 -5.501350 -26.620069 -21.787672 6.136549 -57.137796 -16.587515 -1.736165 -44.341459 -33.842713 10.115309 -3.581699 3.187055 0.367470 -0.098350 0.219430 0.029940 23.185359 20.514493 7.380701 42.170434 9.092125 -6.409721 21.832997 28.106178 3.035500 2.399630 -1.230520 -0.043960 0.164930 0.014310 -0.058140 
0.283230 17.882760 -3.846610 -3.598438 27.848662 -2.142642 -15.667678 12.324273 4.644074 8.476546 -7.919612 -27.718449 -21.001550 17.541092 39.937080 0.883248 9.523165 1.067241 0.224450 0.207600 0.151390 17.816493 -9.595720 3.115716 -9.293715 3.078471 -32.429156 5.428523 -2.769812 7.877220 0.025743 -1.497535 3.663850 0.115360 -0.023280 0.087610 -2.533889 -2.359399 -8.912661 0.809054 1.599750 22.115608 4.950184 2.230817 4.620946 2.041208 4.812322 -12.544950 5.588038 -6.208927 55.366155 5.004500 -4.449100 -6.417190 -23.157249 -21.922183 6.192814 -55.407845 -19.069726 -0.707818 -47.987776 -39.532450 13.735541 -3.579786 3.224093 0.368190 -0.100650 0.221340 0.045560 20.223449 21.269927 7.320245 41.652320 11.415168 -6.168919 27.444259 32.191379 4.903372 2.397468 -1.288506 -0.043230 0.180220 0.007540 -0.051080 
